<?xml version="1.0" encoding="UTF-8" standalone="no"?>
<!-- Created with Inkscape (http://www.inkscape.org/) -->

<svg
   width="111.65415mm"
   height="111.65417mm"
   viewBox="0 0 111.65415 111.65417"
   version="1.1"
   id="svg5"
   xml:space="preserve"
   inkscape:export-filename="logo rectangulo.svg"
   inkscape:export-xdpi="96"
   inkscape:export-ydpi="96"
   xmlns:inkscape="http://www.inkscape.org/namespaces/inkscape"
   xmlns:sodipodi="http://sodipodi.sourceforge.net/DTD/sodipodi-0.dtd"
   xmlns="http://www.w3.org/2000/svg"
   xmlns:svg="http://www.w3.org/2000/svg"><sodipodi:namedview
     id="namedview7"
     pagecolor="#ffffff"
     bordercolor="#000000"
     borderopacity="0.25"
     inkscape:showpageshadow="2"
     inkscape:pageopacity="0.0"
     inkscape:pagecheckerboard="0"
     inkscape:deskcolor="#d1d1d1"
     inkscape:document-units="mm"
     showgrid="false"><inkscape:grid
       type="xygrid"
       id="grid1442" /></sodipodi:namedview><defs
     id="defs2" /><g
     inkscape:label="Capa 1"
     inkscape:groupmode="layer"
     id="layer1"
     transform="translate(-39.675134,-81.631918)"><g
       style="fill:#e49736;fill-opacity:1"
       id="g141"
       transform="matrix(0.15507523,0,0,0.15507523,21.066107,211.89511)"
       inkscape:export-filename="logo cuadrado.svg"
       inkscape:export-xdpi="96"
       inkscape:export-ydpi="96"><path
         d="m 200,-120 q -33,0 -56.5,-23.5 Q 120,-167 120,-200 v -560 q 0,-33 23.5,-56.5 Q 167,-840 200,-840 h 560 q 33,0 56.5,23.5 23.5,23.5 23.5,56.5 v 560 q 0,33 -23.5,56.5 Q 793,-120 760,-120 Z m 0,-80 H 760 V -760 H 200 Z m 40,-80 H 720 L 570,-480 450,-320 360,-440 Z m -40,80 v -560 z"
         id="path132"
         style="fill:#e49736;fill-opacity:1" /></g></g></svg>
